<svg height="366pt" viewBox="0 -5 366 365" width="366pt" xmlns="http://www.w3.org/2000/svg"><path d="m0 244.066406c.0664062 9.578125 7.800781 17.335938 17.382812 17.433594h331.234376c9.582031-.097656 17.316406-7.855469 17.382812-17.433594v-27.566406h-366zm0 0"/><path d="m348.617188.5h-331.234376c-9.605468.152344-17.3242182 7.949219-17.382812 17.554688v184.445312h366v-184.445312c-.058594-9.605469-7.777344-17.402344-17.382812-17.554688zm0 0"/><path d="m291.050781 334.5h-62.839843c-7.3125-8.128906-11.3125-18.703125-11.210938-29.636719v-29.363281h-68v29.363281c.101562 10.933594-3.898438 21.507813-11.210938 29.636719h-58.507812c-5.523438 0-10 4.476562-10 10s4.476562 10 10 10h211.769531c5.523438 0 10-4.476562 10-10s-4.476562-10-10-10zm0 0"/></svg>